<svg xmlns="http://www.w3.org/2000/svg" width="22" height="22" viewBox="0 0 22 22">
  <rect width="22" height="22" fill="none"/>
  <path fill="currentColor" d="M6 4h2v2H6V4zm8 0h2v2h-2V4zM4 6h2v2H4V6zm12 0h2v2h-2V6zM2 8h2v2H2V8zm16 0h2v2h-2V8zM2 10h2v4H2v-4zm16 0h2v4h-2v-4zM4 14h2v2H4v-2zm12 0h2v2h-2v-2zM6 16h2v2H6v-2zm8 0h2v2h-2v-2zM8 18h6v2H8v-2z"/>
  <path fill="currentColor" d="M8 8h2v2H8V8zm2 0h2v2h-2V8zm2 0h2v2h-2V8zM6 10h2v2H6v-2zm2 0h2v2H8v-2zm2 0h2v2h-2v-2zm2 0h2v2h-2v-2zM6 12h2v2H6v-2zm2 0h2v2H8v-2zm2 0h2v2h-2v-2zm2 0h2v2h-2v-2zM8 14h2v2H8v-2zm2 0h2v2h-2v-2zm2 0h2v2h-2v-2zM10 16h2v2h-2v-2z"/>
</svg>
