<svg width="70" height="66" viewBox="0 0 70 66" fill="none" xmlns="http://www.w3.org/2000/svg">
<path d="M55.2627 45.4365H62.6318V52.252H70V65.8828H55.2627V59.0674H47.8945V52.252H40.5264V45.4365H47.8945V38.6211H55.2627V45.4365ZM36.8418 48.8438H14.7373V42.0283H36.8418V48.8438ZM14.7373 42.0283H7.36816V35.2129H14.7373V42.0283ZM44.2109 42.0283H36.8418V35.2129H44.2109V42.0283ZM7.36816 35.2129H0V13.6309H7.36816V35.2129ZM51.5791 35.2129H44.2109V13.6309H51.5791V35.2129ZM14.7373 13.6309H7.36816V6.81543H14.7373V13.6309ZM44.2109 13.6309H36.8418V6.81543H44.2109V13.6309ZM36.8418 6.81543H14.7373V0H36.8418V6.81543Z" fill="currentColor"/>
</svg>
